<svg version="1.1" xmlns="http://www.w3.org/2000/svg" xmlns:xlink="http://www.w3.org/1999/xlink" width="79.5" height="19.83333" viewBox="0,0,79.5,19.83333"><g transform="translate(-106.03571,-308.58333)"><g data-paper-data="{&quot;isPaintingLayer&quot;:true}" fill-rule="nonzero" stroke-linecap="butt" stroke-linejoin="miter" stroke-miterlimit="10" stroke-dasharray="" stroke-dashoffset="0" style="mix-blend-mode: normal"><path d="M106.03571,328.41667v-19.83333h79.5v19.83333z" fill="#ffffff" stroke="#000000" stroke-width="0"/><text transform="translate(112.53571,322.77968) scale(0.31788,0.31788)" font-size="40" xml:space="preserve" fill="#00ff28" fill-rule="nonzero" stroke="none" stroke-width="1" stroke-linecap="butt" stroke-linejoin="miter" stroke-miterlimit="10" stroke-dasharray="" stroke-dashoffset="0" font-family="Marker" font-weight="normal" text-anchor="start" style="mix-blend-mode: normal"><tspan x="0" dy="0">ENABLED</tspan></text><path d="M167.35904,318.65845c0.09237,0.18417 0.10372,0.73898 0.22788,0.57456c1.59924,-2.11802 3.58754,-5.24919 5.31502,-6.97091c1.46123,-1.45635 3.43225,-0.99338 3.66504,0.97734c0.29746,2.51821 -3.24196,5.07222 -4.48313,6.58325c-3.79034,4.61443 -5.86772,7.76955 -8.43339,0.07254c-0.07427,-0.20657 -0.11474,-0.42927 -0.11474,-0.66141c0,-0.11 0.00909,-0.21788 0.02655,-0.32293c0.04219,-0.46789 0.10841,-0.75369 0.51633,-1.02896c0.35581,-0.37148 0.8568,-0.60279 1.41181,-0.60279c0.55663,-0.18561 1.00539,0.12552 1.33972,0.53132c0.23227,0.28192 0.40931,0.60953 0.52891,0.848z" fill="#00ff28" stroke="none" stroke-width="0.5"/></g></g></svg>