<svg version="1.1" xmlns="http://www.w3.org/2000/svg" xmlns:xlink="http://www.w3.org/1999/xlink" width="305" height="246" viewBox="0,0,305,246"><g transform="translate(-20.5,-155)"><g data-paper-data="{&quot;isPaintingLayer&quot;:true}" fill-rule="nonzero" stroke-linecap="butt" stroke-linejoin="miter" stroke-miterlimit="10" stroke-dasharray="" stroke-dashoffset="0" style="mix-blend-mode: normal"><path d="M21.5,400v-244h303v244z" fill="#0a0a0a" stroke="#000000" stroke-width="2"/><text transform="translate(56.5,224) scale(0.5,0.5)" font-size="40" xml:space="preserve" fill="#ffffff" fill-rule="nonzero" stroke="none" stroke-width="1" stroke-linecap="butt" stroke-linejoin="miter" stroke-miterlimit="10" stroke-dasharray="" stroke-dashoffset="0" font-family="Sans Serif" font-weight="normal" text-anchor="start" style="mix-blend-mode: normal"><tspan x="0" dy="0">Puzzle complete!</tspan></text><path d="M165.29635,305.73887c1.102,1.21618 2.17154,2.4521 3.17416,3.7226c1.47125,1.86434 2.0237,4.30478 3.22938,6.35091c2.35997,4.00501 6.17329,7.75909 9.05697,11.41175c5.91455,7.49176 12.26798,14.6011 18.94085,21.42853c0.09809,-1.30287 0.48824,-2.59687 0.66398,-3.89738c0.66959,-4.95496 1.33918,-9.90992 2.00877,-14.86489c1.68688,-12.48293 2.75534,-25.18897 2.15671,-37.76016c-0.00228,-0.04791 -0.47658,-10.00599 -0.47721,-10.02799c-0.02413,-0.83578 0.27152,-1.71037 0.02162,-2.50828c-0.44291,-1.41415 -1.3803,-2.62297 -2.04372,-3.94806c-1.22573,-2.44825 -1.46942,-4.31284 -4.40305,-5.46558c-1.32511,-0.52069 -2.833,-0.28676 -4.2495,-0.43014c-0.99339,-0.08413 -1.99435,-0.10387 -2.98017,-0.25238c-0.7892,-0.11889 -1.80766,-1.15041 -2.33083,-0.5477c-0.76026,0.87587 -0.03939,2.32575 -0.2085,3.47316c-0.62345,4.23011 -0.85582,7.19742 -0.85582,11.57674v3c0,1.38071 -1.11929,2.5 -2.5,2.5c-0.86478,0 -1.627,-0.43908 -2.0759,-1.10647l-2.82563,-4.08147c-4.42924,-4.79022 -7.25459,-10.75006 -11.90294,-15.4751c-1.87418,-1.9051 -3.29724,-4.36785 -5.58092,-5.75593c-3.77918,-2.29709 -8.92208,-3.47288 -13.19835,-4.26577c-1.62397,-0.30111 -3.20411,-0.94002 -4.55827,0.85741c-1.47213,1.95403 -1.89664,4.53784 -2.43058,6.92537c-0.34248,1.5314 -0.34666,3.11973 -0.56689,4.67343c-0.10596,0.74751 -0.63756,1.50702 -0.41128,2.22729c0.4197,1.33593 1.50673,2.36113 2.22956,3.56045c2.42022,4.01559 4.45756,7.61977 7.39684,11.28339c4.20787,5.25984 7.86533,8.68583 13.37745,12.62306l1.31467,1.26657c0,0 1.74855,1.74855 0.02859,3.50663zM154.01405,299.40184c-2.56766,-2.3484 -4.89541,-4.87658 -7.34275,-7.93576c-3.05816,-3.83288 -5.39333,-7.62352 -7.8114,-11.88751c-0.95413,-1.68251 -2.29515,-3.21267 -2.80915,-5.07734c-0.34242,-1.24222 0.20457,-2.56942 0.34837,-3.84993c0.42578,-3.79157 1.49304,-11.36076 4.24287,-14.32398c1.38508,-1.49256 3.46835,-2.25873 5.43376,-2.79106c1.12819,-0.30557 8.66142,1.29787 8.84204,1.35059c0.40121,0.1171 9.75234,3.89862 9.96758,4.03212c1.14564,0.71057 1.9218,1.89119 2.87229,2.8472c3.67413,3.69549 7.18885,7.20066 10.23614,11.44455c1.41668,1.97298 2.90078,3.69674 4.00795,5.56474c0.05493,-2.45717 0.26624,-4.85277 0.97311,-7.43686c0.57936,-2.11796 0.32544,-4.82344 1.9608,-6.28871c1.24411,-1.11471 6.97323,-0.4387 8.95575,-0.27301c1.89169,0.26528 3.92713,0.02539 5.67506,0.79584c4.63849,2.04455 7.97868,8.19983 9.36192,12.83331c0.81044,2.71476 0.22043,5.66209 0.35528,8.49203c0.69892,14.66764 0.01083,29.0906 -1.95826,43.66192c-0.91411,6.76439 -1.58174,13.29711 -3.13312,19.75839l0.45476,0.06145l-0.66487,4.92004c-0.14815,1.23933 -1.20297,2.20012 -2.4822,2.20012c-0.88153,0 -1.6565,-0.45626 -2.10163,-1.14551l-1.87484,-2.81226c-7.36808,-7.30621 -14.26702,-15.08275 -20.69107,-23.21987c-3.07451,-3.89438 -7.00089,-7.87395 -9.53236,-12.13473c-1.07127,-1.80308 -1.44998,-4.01979 -2.77062,-5.64909c-3.05846,-3.7733 -6.61164,-7.26238 -9.87934,-10.85685c0,0 -0.95086,-1.04595 -0.6361,-2.27984z" fill="#ff0000" stroke="none" stroke-width="0.5"/><path d="M59.5,385v-34h93v34z" fill="#000000" stroke="#ffffff" stroke-width="2"/><text transform="translate(88.5,375) scale(0.5,0.5)" font-size="40" xml:space="preserve" fill="#ffffff" fill-rule="nonzero" stroke="none" stroke-width="1" stroke-linecap="butt" stroke-linejoin="miter" stroke-miterlimit="10" stroke-dasharray="" stroke-dashoffset="0" font-family="Sans Serif" font-weight="normal" text-anchor="start" style="mix-blend-mode: normal"><tspan x="0" dy="0">OK</tspan></text></g></g></svg>