<svg version="1.1" xmlns="http://www.w3.org/2000/svg" xmlns:xlink="http://www.w3.org/1999/xlink" width="80.86884" height="80.86884" viewBox="0,0,80.86884,80.86884"><g transform="translate(-139.56558,-279.56558)"><g data-paper-data="{&quot;isPaintingLayer&quot;:true}" fill-rule="nonzero" stroke="none" stroke-linecap="butt" stroke-linejoin="miter" stroke-miterlimit="10" stroke-dasharray="" stroke-dashoffset="0" style="mix-blend-mode: normal"><path d="M139.56558,360.43442v-80.86884h80.86884v80.86884z" fill="none" stroke-width="0"/><path d="M194.35915,339.92715l-28.4828,0.14146c-2.62176,0.01301 -4.75885,-1.89143 -4.7733,-4.25372l-0.18317,-29.94116c-0.01445,-2.36229 2.0992,-4.28787 4.72097,-4.30088l28.4828,-0.14146c2.62176,-0.01301 4.75885,1.89143 4.7733,4.25372l0.18317,29.94116c0.01445,2.36229 -2.09921,4.28787 -4.72097,4.30088z" fill="#9d9ca4" stroke-width="1"/><path d="M194.35915,338.42715l-28.4828,0.14146c-2.62176,0.01301 -4.75885,-1.89143 -4.7733,-4.25372l-0.18317,-29.94116c-0.01445,-2.36229 2.0992,-4.28787 4.72097,-4.30088l28.4828,-0.14146c2.62176,-0.01301 4.75885,1.89143 4.7733,4.25372l0.18317,29.94116c0.01445,2.36229 -2.09921,4.28787 -4.72097,4.30088z" fill="#ffffff" stroke-width="1"/></g></g></svg>