<svg version="1.1" xmlns="http://www.w3.org/2000/svg" xmlns:xlink="http://www.w3.org/1999/xlink" width="354.98268" height="213.19966" viewBox="0,0,354.98268,213.19966"><g transform="translate(-2.26348,-141.82405)"><g data-paper-data="{&quot;isPaintingLayer&quot;:true}" stroke="none" stroke-linecap="butt" stroke-linejoin="miter" stroke-miterlimit="10" stroke-dasharray="" stroke-dashoffset="0" style="mix-blend-mode: normal"><g fill-rule="nonzero" stroke-width="1"><path d="M38.85507,198.41416l-21.26763,0.1378c-1.95763,0.01268 -3.55335,-1.84248 -3.56414,-4.14363l-0.13677,-29.16623c-0.01079,-2.30115 1.56744,-4.17689 3.52507,-4.18957l21.26763,-0.1378c1.95763,-0.01268 3.55335,1.84248 3.56414,4.14363l0.13677,29.16623c0.01079,2.30115 -1.56744,4.17689 -3.52507,4.18957z" fill="#9d9ca4"/><path d="M38.85507,198.41416l-21.26763,0.1378c-1.95763,0.01268 -3.55335,-1.84248 -3.56414,-4.14363l-0.13677,-29.16623c-0.01079,-2.30115 1.56744,-4.17689 3.52507,-4.18957l21.26763,-0.1378c1.95763,-0.01268 3.55335,1.84248 3.56414,4.14363l0.13677,29.16623c0.01079,2.30115 -1.56744,4.17689 -3.52507,4.18957z" fill="#9d9ca4"/><path d="M38.85507,196.91416l-21.26763,0.1378c-1.95763,0.01268 -3.55335,-1.84248 -3.56414,-4.14363l-0.13677,-29.16623c-0.01079,-2.30115 1.56744,-4.17689 3.52507,-4.18957l21.26763,-0.1378c1.95763,-0.01268 3.55335,1.84248 3.56414,4.14363l0.13677,29.16623c0.01079,2.30115 -1.56744,4.17689 -3.52507,4.18957z" fill="#ffffff"/><path d="M38.85507,196.91416l-21.26763,0.1378c-1.95763,0.01268 -3.55335,-1.84248 -3.56414,-4.14363l-0.13677,-29.16623c-0.01079,-2.30115 1.56744,-4.17689 3.52507,-4.18957l21.26763,-0.1378c1.95763,-0.01268 3.55335,1.84248 3.56414,4.14363l0.13677,29.16623c0.01079,2.30115 -1.56744,4.17689 -3.52507,4.18957z" fill="#ffffff"/><text transform="translate(20.5,184.00001) scale(0.5,0.5)" font-size="40" xml:space="preserve" fill="#ff0000" fill-rule="nonzero" stroke="none" stroke-width="1" stroke-linecap="butt" stroke-linejoin="miter" stroke-miterlimit="10" stroke-dasharray="" stroke-dashoffset="0" font-family="Sans Serif" font-weight="normal" text-anchor="start" style="mix-blend-mode: normal"><tspan x="0" dy="0">Q</tspan></text><text transform="translate(20.5,184.00001) scale(0.5,0.5)" font-size="40" xml:space="preserve" fill="#040404" fill-rule="nonzero" stroke="none" stroke-width="1" stroke-linecap="butt" stroke-linejoin="miter" stroke-miterlimit="10" stroke-dasharray="" stroke-dashoffset="0" font-family="Sans Serif" font-weight="normal" text-anchor="start" style="mix-blend-mode: normal"><tspan x="0" dy="0">Q</tspan></text></g><g fill-rule="nonzero" stroke-width="1"><path d="M72.1884,198.41416l-21.26763,0.1378c-1.95763,0.01268 -3.55335,-1.84248 -3.56414,-4.14363l-0.13677,-29.16623c-0.01079,-2.30115 1.56744,-4.17689 3.52507,-4.18957l21.26763,-0.1378c1.95763,-0.01268 3.55335,1.84248 3.56414,4.14363l0.13677,29.16623c0.01079,2.30115 -1.56744,4.17689 -3.52507,4.18957z" fill="#9d9ca4"/><path d="M72.1884,196.91416l-21.26763,0.1378c-1.95763,0.01268 -3.55335,-1.84248 -3.56414,-4.14363l-0.13677,-29.16623c-0.01079,-2.30115 1.56744,-4.17689 3.52507,-4.18957l21.26763,-0.1378c1.95763,-0.01268 3.55335,1.84248 3.56414,4.14363l0.13677,29.16623c0.01079,2.30115 -1.56744,4.17689 -3.52507,4.18957z" fill="#ffffff"/><text transform="translate(52.16667,185.00001) scale(0.5,0.5)" font-size="40" xml:space="preserve" fill="#040404" fill-rule="nonzero" stroke="none" stroke-width="1" stroke-linecap="butt" stroke-linejoin="miter" stroke-miterlimit="10" stroke-dasharray="" stroke-dashoffset="0" font-family="Sans Serif" font-weight="normal" text-anchor="start" style="mix-blend-mode: normal"><tspan x="0" dy="0">W</tspan></text></g><g fill-rule="nonzero" stroke-width="1"><path d="M105.85507,198.41416l-21.26763,0.1378c-1.95763,0.01268 -3.55335,-1.84248 -3.56414,-4.14363l-0.13677,-29.16623c-0.01079,-2.30115 1.56744,-4.17689 3.52507,-4.18957l21.26763,-0.1378c1.95763,-0.01268 3.55335,1.84248 3.56414,4.14363l0.13677,29.16623c0.01079,2.30115 -1.56744,4.17689 -3.52507,4.18957z" fill="#9d9ca4"/><path d="M105.85507,196.91416l-21.26763,0.1378c-1.95763,0.01268 -3.55335,-1.84248 -3.56414,-4.14363l-0.13677,-29.16623c-0.01079,-2.30115 1.56744,-4.17689 3.52507,-4.18957l21.26763,-0.1378c1.95763,-0.01268 3.55335,1.84248 3.56414,4.14363l0.13677,29.16623c0.01079,2.30115 -1.56744,4.17689 -3.52507,4.18957z" fill="#ffffff"/><text transform="translate(89.16667,184.66668) scale(0.5,0.5)" font-size="40" xml:space="preserve" fill="#040404" fill-rule="nonzero" stroke="none" stroke-width="1" stroke-linecap="butt" stroke-linejoin="miter" stroke-miterlimit="10" stroke-dasharray="" stroke-dashoffset="0" font-family="Sans Serif" font-weight="normal" text-anchor="start" style="mix-blend-mode: normal"><tspan x="0" dy="0">E</tspan></text></g><g fill-rule="nonzero" stroke-width="1"><path d="M139.18841,198.41416l-21.26763,0.1378c-1.95763,0.01268 -3.55335,-1.84248 -3.56414,-4.14363l-0.13677,-29.16623c-0.01079,-2.30115 1.56744,-4.17689 3.52507,-4.18957l21.26763,-0.1378c1.95763,-0.01268 3.55335,1.84248 3.56414,4.14363l0.13677,29.16623c0.01079,2.30115 -1.56744,4.17689 -3.52507,4.18957z" fill="#9d9ca4"/><path d="M139.18841,196.91416l-21.26763,0.1378c-1.95763,0.01268 -3.55335,-1.84248 -3.56414,-4.14363l-0.13677,-29.16623c-0.01079,-2.30115 1.56744,-4.17689 3.52507,-4.18957l21.26763,-0.1378c1.95763,-0.01268 3.55335,1.84248 3.56414,4.14363l0.13677,29.16623c0.01079,2.30115 -1.56744,4.17689 -3.52507,4.18957z" fill="#ffffff"/><text transform="translate(122.5,184.00001) scale(0.5,0.5)" font-size="40" xml:space="preserve" fill="#040404" fill-rule="nonzero" stroke="none" stroke-width="1" stroke-linecap="butt" stroke-linejoin="miter" stroke-miterlimit="10" stroke-dasharray="" stroke-dashoffset="0" font-family="Sans Serif" font-weight="normal" text-anchor="start" style="mix-blend-mode: normal"><tspan x="0" dy="0">R</tspan></text></g><g fill-rule="nonzero" stroke-width="1"><path d="M172.85507,198.41416l-21.26763,0.1378c-1.95763,0.01268 -3.55335,-1.84248 -3.56414,-4.14363l-0.13677,-29.16623c-0.01079,-2.30115 1.56744,-4.17689 3.52507,-4.18957l21.26763,-0.1378c1.95763,-0.01268 3.55335,1.84248 3.56414,4.14363l0.13677,29.16623c0.01079,2.30115 -1.56744,4.17689 -3.52507,4.18957z" fill="#9d9ca4"/><path d="M172.85507,196.91416l-21.26763,0.1378c-1.95763,0.01268 -3.55335,-1.84248 -3.56414,-4.14363l-0.13677,-29.16623c-0.01079,-2.30115 1.56744,-4.17689 3.52507,-4.18957l21.26763,-0.1378c1.95763,-0.01268 3.55335,1.84248 3.56414,4.14363l0.13677,29.16623c0.01079,2.30115 -1.56744,4.17689 -3.52507,4.18957z" fill="#ffffff"/><text transform="translate(156.5,184.00001) scale(0.5,0.5)" font-size="40" xml:space="preserve" fill="#040404" fill-rule="nonzero" stroke="none" stroke-width="1" stroke-linecap="butt" stroke-linejoin="miter" stroke-miterlimit="10" stroke-dasharray="" stroke-dashoffset="0" font-family="Sans Serif" font-weight="normal" text-anchor="start" style="mix-blend-mode: normal"><tspan x="0" dy="0">T</tspan></text></g><g fill-rule="nonzero" stroke-width="1"><path d="M206.18841,198.41416l-21.26763,0.1378c-1.95763,0.01268 -3.55335,-1.84248 -3.56414,-4.14363l-0.13677,-29.16623c-0.01079,-2.30115 1.56744,-4.17689 3.52507,-4.18957l21.26763,-0.1378c1.95763,-0.01268 3.55335,1.84248 3.56414,4.14363l0.13677,29.16623c0.01079,2.30115 -1.56744,4.17689 -3.52507,4.18957z" fill="#9d9ca4"/><path d="M206.18841,196.91416l-21.26763,0.1378c-1.95763,0.01268 -3.55335,-1.84248 -3.56414,-4.14363l-0.13677,-29.16623c-0.01079,-2.30115 1.56744,-4.17689 3.52507,-4.18957l21.26763,-0.1378c1.95763,-0.01268 3.55335,1.84248 3.56414,4.14363l0.13677,29.16623c0.01079,2.30115 -1.56744,4.17689 -3.52507,4.18957z" fill="#ffffff"/><text transform="translate(189.83334,184.00001) scale(0.5,0.5)" font-size="40" xml:space="preserve" fill="#040404" fill-rule="nonzero" stroke="none" stroke-width="1" stroke-linecap="butt" stroke-linejoin="miter" stroke-miterlimit="10" stroke-dasharray="" stroke-dashoffset="0" font-family="Sans Serif" font-weight="normal" text-anchor="start" style="mix-blend-mode: normal"><tspan x="0" dy="0">Y</tspan></text></g><g fill-rule="nonzero" stroke-width="1"><path d="M239.85507,198.41416l-21.26763,0.1378c-1.95763,0.01268 -3.55335,-1.84248 -3.56414,-4.14363l-0.13677,-29.16623c-0.01079,-2.30115 1.56744,-4.17689 3.52507,-4.18957l21.26763,-0.1378c1.95763,-0.01268 3.55335,1.84248 3.56414,4.14363l0.13677,29.16623c0.01079,2.30115 -1.56744,4.17689 -3.52507,4.18957z" fill="#9d9ca4"/><path d="M239.85507,196.91416l-21.26763,0.1378c-1.95763,0.01268 -3.55335,-1.84248 -3.56414,-4.14363l-0.13677,-29.16623c-0.01079,-2.30115 1.56744,-4.17689 3.52507,-4.18957l21.26763,-0.1378c1.95763,-0.01268 3.55335,1.84248 3.56414,4.14363l0.13677,29.16623c0.01079,2.30115 -1.56744,4.17689 -3.52507,4.18957z" fill="#ffffff"/><text transform="translate(221.83333,184.00001) scale(0.5,0.5)" font-size="40" xml:space="preserve" fill="#040404" fill-rule="nonzero" stroke="none" stroke-width="1" stroke-linecap="butt" stroke-linejoin="miter" stroke-miterlimit="10" stroke-dasharray="" stroke-dashoffset="0" font-family="Sans Serif" font-weight="normal" text-anchor="start" style="mix-blend-mode: normal"><tspan x="0" dy="0">U</tspan></text></g><g fill-rule="nonzero" stroke-width="1"><path d="M273.52173,198.41416l-21.26763,0.1378c-1.95763,0.01268 -3.55335,-1.84248 -3.56414,-4.14363l-0.13677,-29.16623c-0.01079,-2.30115 1.56744,-4.17689 3.52507,-4.18957l21.26763,-0.1378c1.95763,-0.01268 3.55335,1.84248 3.56414,4.14363l0.13677,29.16623c0.01079,2.30115 -1.56744,4.17689 -3.52507,4.18957z" fill="#9d9ca4"/><path d="M273.52173,196.91416l-21.26763,0.1378c-1.95763,0.01268 -3.55335,-1.84248 -3.56414,-4.14363l-0.13677,-29.16623c-0.01079,-2.30115 1.56744,-4.17689 3.52507,-4.18957l21.26763,-0.1378c1.95763,-0.01268 3.55335,1.84248 3.56414,4.14363l0.13677,29.16623c0.01079,2.30115 -1.56744,4.17689 -3.52507,4.18957z" fill="#ffffff"/><text transform="translate(259.16666,184.00001) scale(0.5,0.5)" font-size="40" xml:space="preserve" fill="#040404" fill-rule="nonzero" stroke="none" stroke-width="1" stroke-linecap="butt" stroke-linejoin="miter" stroke-miterlimit="10" stroke-dasharray="" stroke-dashoffset="0" font-family="Sans Serif" font-weight="normal" text-anchor="start" style="mix-blend-mode: normal"><tspan x="0" dy="0">I</tspan></text></g><g fill-rule="nonzero" stroke-width="1"><path d="M306.52174,198.41416l-21.26763,0.1378c-1.95763,0.01268 -3.55335,-1.84248 -3.56414,-4.14363l-0.13677,-29.16623c-0.01079,-2.30115 1.56744,-4.17689 3.52507,-4.18957l21.26763,-0.1378c1.95763,-0.01268 3.55335,1.84248 3.56414,4.14363l0.13677,29.16623c0.01079,2.30115 -1.56744,4.17689 -3.52507,4.18957z" fill="#9d9ca4"/><path d="M306.52174,196.91416l-21.26763,0.1378c-1.95763,0.01268 -3.55335,-1.84248 -3.56414,-4.14363l-0.13677,-29.16623c-0.01079,-2.30115 1.56744,-4.17689 3.52507,-4.18957l21.26763,-0.1378c1.95763,-0.01268 3.55335,1.84248 3.56414,4.14363l0.13677,29.16623c0.01079,2.30115 -1.56744,4.17689 -3.52507,4.18957z" fill="#ffffff"/><text transform="translate(288.16667,184.00001) scale(0.5,0.5)" font-size="40" xml:space="preserve" fill="#040404" fill-rule="nonzero" stroke="none" stroke-width="1" stroke-linecap="butt" stroke-linejoin="miter" stroke-miterlimit="10" stroke-dasharray="" stroke-dashoffset="0" font-family="Sans Serif" font-weight="normal" text-anchor="start" style="mix-blend-mode: normal"><tspan x="0" dy="0">O</tspan></text></g><g fill-rule="nonzero" stroke-width="1"><path d="M340.18841,198.41416l-21.26763,0.1378c-1.95763,0.01268 -3.55335,-1.84248 -3.56414,-4.14363l-0.13677,-29.16623c-0.01079,-2.30115 1.56744,-4.17689 3.52507,-4.18957l21.26763,-0.1378c1.95763,-0.01268 3.55335,1.84248 3.56414,4.14363l0.13677,29.16623c0.01079,2.30115 -1.56744,4.17689 -3.52507,4.18957z" fill="#9d9ca4"/><path d="M340.18841,196.91416l-21.26763,0.1378c-1.95763,0.01268 -3.55335,-1.84248 -3.56414,-4.14363l-0.13677,-29.16623c-0.01079,-2.30115 1.56744,-4.17689 3.52507,-4.18957l21.26763,-0.1378c1.95763,-0.01268 3.55335,1.84248 3.56414,4.14363l0.13677,29.16623c0.01079,2.30115 -1.56744,4.17689 -3.52507,4.18957z" fill="#ffffff"/><text transform="translate(323.83333,184.00001) scale(0.5,0.5)" font-size="40" xml:space="preserve" fill="#040404" fill-rule="nonzero" stroke="none" stroke-width="1" stroke-linecap="butt" stroke-linejoin="miter" stroke-miterlimit="10" stroke-dasharray="" stroke-dashoffset="0" font-family="Sans Serif" font-weight="normal" text-anchor="start" style="mix-blend-mode: normal"><tspan x="0" dy="0">P</tspan></text></g><g fill-rule="nonzero" stroke-width="1"><path d="M55.52174,247.08082l-21.26763,0.1378c-1.95763,0.01268 -3.55335,-1.84248 -3.56414,-4.14363l-0.13677,-29.16623c-0.01079,-2.30115 1.56744,-4.17689 3.52507,-4.18957l21.26763,-0.1378c1.95763,-0.01268 3.55335,1.84248 3.56414,4.14363l0.13677,29.16623c0.01079,2.30115 -1.56744,4.17689 -3.52507,4.18957z" fill="#9d9ca4"/><path d="M55.52174,245.58082l-21.26763,0.1378c-1.95763,0.01268 -3.55335,-1.84248 -3.56414,-4.14363l-0.13677,-29.16623c-0.01079,-2.30115 1.56744,-4.17689 3.52507,-4.18957l21.26763,-0.1378c1.95763,-0.01268 3.55335,1.84248 3.56414,4.14363l0.13677,29.16623c0.01079,2.30115 -1.56744,4.17689 -3.52507,4.18957z" fill="#ffffff"/><text transform="translate(38.16667,232.66668) scale(0.5,0.5)" font-size="40" xml:space="preserve" fill="#040404" fill-rule="nonzero" stroke="none" stroke-width="1" stroke-linecap="butt" stroke-linejoin="miter" stroke-miterlimit="10" stroke-dasharray="" stroke-dashoffset="0" font-family="Sans Serif" font-weight="normal" text-anchor="start" style="mix-blend-mode: normal"><tspan x="0" dy="0">A</tspan></text></g><g fill-rule="nonzero" stroke-width="1"><path d="M89.1884,247.08082l-21.26763,0.1378c-1.95763,0.01268 -3.55335,-1.84248 -3.56414,-4.14363l-0.13677,-29.16623c-0.01079,-2.30115 1.56744,-4.17689 3.52507,-4.18957l21.26763,-0.1378c1.95763,-0.01268 3.55335,1.84248 3.56414,4.14363l0.13677,29.16623c0.01079,2.30115 -1.56744,4.17689 -3.52507,4.18957z" fill="#9d9ca4"/><path d="M89.1884,245.58082l-21.26763,0.1378c-1.95763,0.01268 -3.55335,-1.84248 -3.56414,-4.14363l-0.13677,-29.16623c-0.01079,-2.30115 1.56744,-4.17689 3.52507,-4.18957l21.26763,-0.1378c1.95763,-0.01268 3.55335,1.84248 3.56414,4.14363l0.13677,29.16623c0.01079,2.30115 -1.56744,4.17689 -3.52507,4.18957z" fill="#ffffff"/><text transform="translate(73.16667,232.66668) scale(0.5,0.5)" font-size="40" xml:space="preserve" fill="#040404" fill-rule="nonzero" stroke="none" stroke-width="1" stroke-linecap="butt" stroke-linejoin="miter" stroke-miterlimit="10" stroke-dasharray="" stroke-dashoffset="0" font-family="Sans Serif" font-weight="normal" text-anchor="start" style="mix-blend-mode: normal"><tspan x="0" dy="0">S</tspan></text></g><g fill-rule="nonzero" stroke-width="1"><path d="M122.52174,247.08082l-21.26763,0.1378c-1.95763,0.01268 -3.55335,-1.84248 -3.56414,-4.14363l-0.13677,-29.16623c-0.01079,-2.30115 1.56744,-4.17689 3.52507,-4.18957l21.26763,-0.1378c1.95763,-0.01268 3.55335,1.84248 3.56414,4.14363l0.13677,29.16623c0.01079,2.30115 -1.56744,4.17689 -3.52507,4.18957z" fill="#9d9ca4"/><path d="M122.52174,245.58082l-21.26763,0.1378c-1.95763,0.01268 -3.55335,-1.84248 -3.56414,-4.14363l-0.13677,-29.16623c-0.01079,-2.30115 1.56744,-4.17689 3.52507,-4.18957l21.26763,-0.1378c1.95763,-0.01268 3.55335,1.84248 3.56414,4.14363l0.13677,29.16623c0.01079,2.30115 -1.56744,4.17689 -3.52507,4.18957z" fill="#ffffff"/><text transform="translate(104.16667,232.66668) scale(0.5,0.5)" font-size="40" xml:space="preserve" fill="#040404" fill-rule="nonzero" stroke="none" stroke-width="1" stroke-linecap="butt" stroke-linejoin="miter" stroke-miterlimit="10" stroke-dasharray="" stroke-dashoffset="0" font-family="Sans Serif" font-weight="normal" text-anchor="start" style="mix-blend-mode: normal"><tspan x="0" dy="0">D</tspan></text></g><g fill-rule="nonzero" stroke-width="1"><path d="M156.18841,247.08082l-21.26763,0.1378c-1.95763,0.01268 -3.55335,-1.84248 -3.56414,-4.14363l-0.13677,-29.16623c-0.01079,-2.30115 1.56744,-4.17689 3.52507,-4.18957l21.26763,-0.1378c1.95763,-0.01268 3.55335,1.84248 3.56414,4.14363l0.13677,29.16623c0.01079,2.30115 -1.56744,4.17689 -3.52507,4.18957z" fill="#9d9ca4"/><path d="M156.18841,245.58082l-21.26763,0.1378c-1.95763,0.01268 -3.55335,-1.84248 -3.56414,-4.14363l-0.13677,-29.16623c-0.01079,-2.30115 1.56744,-4.17689 3.52507,-4.18957l21.26763,-0.1378c1.95763,-0.01268 3.55335,1.84248 3.56414,4.14363l0.13677,29.16623c0.01079,2.30115 -1.56744,4.17689 -3.52507,4.18957z" fill="#ffffff"/><text transform="translate(139.5,232.66668) scale(0.5,0.5)" font-size="40" xml:space="preserve" fill="#040404" fill-rule="nonzero" stroke="none" stroke-width="1" stroke-linecap="butt" stroke-linejoin="miter" stroke-miterlimit="10" stroke-dasharray="" stroke-dashoffset="0" font-family="Sans Serif" font-weight="normal" text-anchor="start" style="mix-blend-mode: normal"><tspan x="0" dy="0">F</tspan></text></g><g fill-rule="nonzero" stroke-width="1"><path d="M189.52174,247.08082l-21.26763,0.1378c-1.95763,0.01268 -3.55335,-1.84248 -3.56414,-4.14363l-0.13677,-29.16623c-0.01079,-2.30115 1.56744,-4.17689 3.52507,-4.18957l21.26763,-0.1378c1.95763,-0.01268 3.55335,1.84248 3.56414,4.14363l0.13677,29.16623c0.01079,2.30115 -1.56744,4.17689 -3.52507,4.18957z" fill="#9d9ca4"/><path d="M189.52174,245.58082l-21.26763,0.1378c-1.95763,0.01268 -3.55335,-1.84248 -3.56414,-4.14363l-0.13677,-29.16623c-0.01079,-2.30115 1.56744,-4.17689 3.52507,-4.18957l21.26763,-0.1378c1.95763,-0.01268 3.55335,1.84248 3.56414,4.14363l0.13677,29.16623c0.01079,2.30115 -1.56744,4.17689 -3.52507,4.18957z" fill="#ffffff"/><text transform="translate(171.16667,232.66668) scale(0.5,0.5)" font-size="40" xml:space="preserve" fill="#040404" fill-rule="nonzero" stroke="none" stroke-width="1" stroke-linecap="butt" stroke-linejoin="miter" stroke-miterlimit="10" stroke-dasharray="" stroke-dashoffset="0" font-family="Sans Serif" font-weight="normal" text-anchor="start" style="mix-blend-mode: normal"><tspan x="0" dy="0">G</tspan></text></g><g fill-rule="nonzero" stroke-width="1"><path d="M223.18841,247.08082l-21.26763,0.1378c-1.95763,0.01268 -3.55335,-1.84248 -3.56414,-4.14363l-0.13677,-29.16623c-0.01079,-2.30115 1.56744,-4.17689 3.52507,-4.18957l21.26763,-0.1378c1.95763,-0.01268 3.55335,1.84248 3.56414,4.14363l0.13677,29.16623c0.01079,2.30115 -1.56744,4.17689 -3.52507,4.18957z" fill="#9d9ca4"/><path d="M223.18841,245.58082l-21.26763,0.1378c-1.95763,0.01268 -3.55335,-1.84248 -3.56414,-4.14363l-0.13677,-29.16623c-0.01079,-2.30115 1.56744,-4.17689 3.52507,-4.18957l21.26763,-0.1378c1.95763,-0.01268 3.55335,1.84248 3.56414,4.14363l0.13677,29.16623c0.01079,2.30115 -1.56744,4.17689 -3.52507,4.18957z" fill="#ffffff"/><text transform="translate(204.83333,232.66668) scale(0.5,0.5)" font-size="40" xml:space="preserve" fill="#040404" fill-rule="nonzero" stroke="none" stroke-width="1" stroke-linecap="butt" stroke-linejoin="miter" stroke-miterlimit="10" stroke-dasharray="" stroke-dashoffset="0" font-family="Sans Serif" font-weight="normal" text-anchor="start" style="mix-blend-mode: normal"><tspan x="0" dy="0">H</tspan></text></g><g fill-rule="nonzero" stroke-width="1"><path d="M256.85507,247.08082l-21.26763,0.1378c-1.95763,0.01268 -3.55335,-1.84248 -3.56414,-4.14363l-0.13677,-29.16623c-0.01079,-2.30115 1.56744,-4.17689 3.52507,-4.18957l21.26763,-0.1378c1.95763,-0.01268 3.55335,1.84248 3.56414,4.14363l0.13677,29.16623c0.01079,2.30115 -1.56744,4.17689 -3.52507,4.18957z" fill="#9d9ca4"/><path d="M256.85507,245.58082l-21.26763,0.1378c-1.95763,0.01268 -3.55335,-1.84248 -3.56414,-4.14363l-0.13677,-29.16623c-0.01079,-2.30115 1.56744,-4.17689 3.52507,-4.18957l21.26763,-0.1378c1.95763,-0.01268 3.55335,1.84248 3.56414,4.14363l0.13677,29.16623c0.01079,2.30115 -1.56744,4.17689 -3.52507,4.18957z" fill="#ffffff"/><text transform="translate(243.83333,232.66668) scale(0.5,0.5)" font-size="40" xml:space="preserve" fill="#040404" fill-rule="nonzero" stroke="none" stroke-width="1" stroke-linecap="butt" stroke-linejoin="miter" stroke-miterlimit="10" stroke-dasharray="" stroke-dashoffset="0" font-family="Sans Serif" font-weight="normal" text-anchor="start" style="mix-blend-mode: normal"><tspan x="0" dy="0">J</tspan></text></g><g fill-rule="nonzero" stroke-width="1"><path d="M290.1884,247.08082l-21.26763,0.1378c-1.95763,0.01268 -3.55335,-1.84248 -3.56414,-4.14363l-0.13677,-29.16623c-0.01079,-2.30115 1.56744,-4.17689 3.52507,-4.18957l21.26763,-0.1378c1.95763,-0.01268 3.55335,1.84248 3.56414,4.14363l0.13677,29.16623c0.01079,2.30115 -1.56744,4.17689 -3.52507,4.18957z" fill="#9d9ca4"/><path d="M290.1884,245.58082l-21.26763,0.1378c-1.95763,0.01268 -3.55335,-1.84248 -3.56414,-4.14363l-0.13677,-29.16623c-0.01079,-2.30115 1.56744,-4.17689 3.52507,-4.18957l21.26763,-0.1378c1.95763,-0.01268 3.55335,1.84248 3.56414,4.14363l0.13677,29.16623c0.01079,2.30115 -1.56744,4.17689 -3.52507,4.18957z" fill="#ffffff"/><text transform="translate(272.83333,232.66668) scale(0.5,0.5)" font-size="40" xml:space="preserve" fill="#040404" fill-rule="nonzero" stroke="none" stroke-width="1" stroke-linecap="butt" stroke-linejoin="miter" stroke-miterlimit="10" stroke-dasharray="" stroke-dashoffset="0" font-family="Sans Serif" font-weight="normal" text-anchor="start" style="mix-blend-mode: normal"><tspan x="0" dy="0">K</tspan></text></g><g fill-rule="nonzero" stroke-width="1"><path d="M323.85507,247.08082l-21.26763,0.1378c-1.95763,0.01268 -3.55335,-1.84248 -3.56414,-4.14363l-0.13677,-29.16623c-0.01079,-2.30115 1.56744,-4.17689 3.52507,-4.18957l21.26763,-0.1378c1.95763,-0.01268 3.55335,1.84248 3.56414,4.14363l0.13677,29.16623c0.01079,2.30115 -1.56744,4.17689 -3.52507,4.18957z" fill="#9d9ca4"/><path d="M323.85507,245.58082l-21.26763,0.1378c-1.95763,0.01268 -3.55335,-1.84248 -3.56414,-4.14363l-0.13677,-29.16623c-0.01079,-2.30115 1.56744,-4.17689 3.52507,-4.18957l21.26763,-0.1378c1.95763,-0.01268 3.55335,1.84248 3.56414,4.14363l0.13677,29.16623c0.01079,2.30115 -1.56744,4.17689 -3.52507,4.18957z" fill="#ffffff"/><text transform="translate(307.5,232.66668) scale(0.5,0.5)" font-size="40" xml:space="preserve" fill="#040404" fill-rule="nonzero" stroke="none" stroke-width="1" stroke-linecap="butt" stroke-linejoin="miter" stroke-miterlimit="10" stroke-dasharray="" stroke-dashoffset="0" font-family="Sans Serif" font-weight="normal" text-anchor="start" style="mix-blend-mode: normal"><tspan x="0" dy="0">L</tspan></text></g><path d="M46.99248,296.07716l-28.4828,0.14146c-2.62176,0.01301 -4.75885,-1.89143 -4.7733,-4.25372l-0.18317,-29.94116c-0.01445,-2.36229 2.0992,-4.28787 4.72097,-4.30088l28.4828,-0.14146c2.62176,-0.01301 4.75885,1.89143 4.7733,4.25372l0.18317,29.94116c0.01445,2.36229 -2.09921,4.28787 -4.72097,4.30088z" fill="#9d9ca4" fill-rule="nonzero" stroke-width="1"/><path d="M46.99248,294.57716l-28.4828,0.14146c-2.62176,0.01301 -4.75885,-1.89143 -4.7733,-4.25372l-0.18317,-29.94116c-0.01445,-2.36229 2.0992,-4.28787 4.72097,-4.30088l28.4828,-0.14146c2.62176,-0.01301 4.75885,1.89143 4.7733,4.25372l0.18317,29.94116c0.01445,2.36229 -2.09921,4.28787 -4.72097,4.30088z" fill="#ffffff" fill-rule="nonzero" stroke-width="1"/><path d="M39.79438,275.00001c-1.0676,0.934 -2.401,1.268 -4,1c0,1.667 0,3.333 0,5c-2.3333,1.333 -4.6667,1.333 -7,0c0,-1.667 0,-3.333 0,-5c-1.6667,0 -3.3333,0 -5,0c2.6444,-2.98 5.311,-5.98 8,-9c3.0211,2.354 5.6877,5.021 8,8z" fill="#040404" fill-rule="evenodd" stroke-width="1"/><g fill-rule="nonzero" stroke-width="1"><path d="M88.85507,295.41416l-21.26763,0.1378c-1.95763,0.01268 -3.55335,-1.84248 -3.56414,-4.14363l-0.13677,-29.16623c-0.01079,-2.30115 1.56744,-4.17689 3.52507,-4.18957l21.26763,-0.1378c1.95763,-0.01268 3.55335,1.84248 3.56414,4.14363l0.13677,29.16623c0.01079,2.30115 -1.56744,4.17689 -3.52507,4.18957z" fill="#9d9ca4"/><path d="M88.85507,293.91416l-21.26763,0.1378c-1.95763,0.01268 -3.55335,-1.84248 -3.56414,-4.14363l-0.13677,-29.16623c-0.01079,-2.30115 1.56744,-4.17689 3.52507,-4.18957l21.26763,-0.1378c1.95763,-0.01268 3.55335,1.84248 3.56414,4.14363l0.13677,29.16623c0.01079,2.30115 -1.56744,4.17689 -3.52507,4.18957z" fill="#ffffff"/><text transform="translate(72.5,281.00001) scale(0.5,0.5)" font-size="40" xml:space="preserve" fill="#040404" fill-rule="nonzero" stroke="none" stroke-width="1" stroke-linecap="butt" stroke-linejoin="miter" stroke-miterlimit="10" stroke-dasharray="" stroke-dashoffset="0" font-family="Sans Serif" font-weight="normal" text-anchor="start" style="mix-blend-mode: normal"><tspan x="0" dy="0">Z</tspan></text></g><g fill-rule="nonzero" stroke-width="1"><path d="M122.18841,295.41416l-21.26763,0.1378c-1.95763,0.01268 -3.55335,-1.84248 -3.56414,-4.14363l-0.13677,-29.16623c-0.01079,-2.30115 1.56744,-4.17689 3.52507,-4.18957l21.26763,-0.1378c1.95763,-0.01268 3.55335,1.84248 3.56414,4.14363l0.13677,29.16623c0.01079,2.30115 -1.56744,4.17689 -3.52507,4.18957z" fill="#9d9ca4"/><path d="M122.18841,293.91416l-21.26763,0.1378c-1.95763,0.01268 -3.55335,-1.84248 -3.56414,-4.14363l-0.13677,-29.16623c-0.01079,-2.30115 1.56744,-4.17689 3.52507,-4.18957l21.26763,-0.1378c1.95763,-0.01268 3.55335,1.84248 3.56414,4.14363l0.13677,29.16623c0.01079,2.30115 -1.56744,4.17689 -3.52507,4.18957z" fill="#ffffff"/><text transform="translate(105.83334,281.00001) scale(0.5,0.5)" font-size="40" xml:space="preserve" fill="#040404" fill-rule="nonzero" stroke="none" stroke-width="1" stroke-linecap="butt" stroke-linejoin="miter" stroke-miterlimit="10" stroke-dasharray="" stroke-dashoffset="0" font-family="Sans Serif" font-weight="normal" text-anchor="start" style="mix-blend-mode: normal"><tspan x="0" dy="0">X</tspan></text></g><g fill-rule="nonzero" stroke-width="1"><path d="M155.85507,295.41416l-21.26763,0.1378c-1.95763,0.01268 -3.55335,-1.84248 -3.56414,-4.14363l-0.13677,-29.16623c-0.01079,-2.30115 1.56744,-4.17689 3.52507,-4.18957l21.26763,-0.1378c1.95763,-0.01268 3.55335,1.84248 3.56414,4.14363l0.13677,29.16623c0.01079,2.30115 -1.56744,4.17689 -3.52507,4.18957z" fill="#9d9ca4"/><path d="M155.85507,293.91416l-21.26763,0.1378c-1.95763,0.01268 -3.55335,-1.84248 -3.56414,-4.14363l-0.13677,-29.16623c-0.01079,-2.30115 1.56744,-4.17689 3.52507,-4.18957l21.26763,-0.1378c1.95763,-0.01268 3.55335,1.84248 3.56414,4.14363l0.13677,29.16623c0.01079,2.30115 -1.56744,4.17689 -3.52507,4.18957z" fill="#ffffff"/><text transform="translate(138.16667,281.00001) scale(0.5,0.5)" font-size="40" xml:space="preserve" fill="#040404" fill-rule="nonzero" stroke="none" stroke-width="1" stroke-linecap="butt" stroke-linejoin="miter" stroke-miterlimit="10" stroke-dasharray="" stroke-dashoffset="0" font-family="Sans Serif" font-weight="normal" text-anchor="start" style="mix-blend-mode: normal"><tspan x="0" dy="0">C</tspan></text></g><g fill-rule="nonzero" stroke-width="1"><path d="M189.18841,295.41416l-21.26763,0.1378c-1.95763,0.01268 -3.55335,-1.84248 -3.56414,-4.14363l-0.13677,-29.16623c-0.01079,-2.30115 1.56744,-4.17689 3.52507,-4.18957l21.26763,-0.1378c1.95763,-0.01268 3.55335,1.84248 3.56414,4.14363l0.13677,29.16623c0.01079,2.30115 -1.56744,4.17689 -3.52507,4.18957z" fill="#9d9ca4"/><path d="M189.18841,293.91416l-21.26763,0.1378c-1.95763,0.01268 -3.55335,-1.84248 -3.56414,-4.14363l-0.13677,-29.16623c-0.01079,-2.30115 1.56744,-4.17689 3.52507,-4.18957l21.26763,-0.1378c1.95763,-0.01268 3.55335,1.84248 3.56414,4.14363l0.13677,29.16623c0.01079,2.30115 -1.56744,4.17689 -3.52507,4.18957z" fill="#ffffff"/><text transform="translate(172.16667,281.00001) scale(0.5,0.5)" font-size="40" xml:space="preserve" fill="#040404" fill-rule="nonzero" stroke="none" stroke-width="1" stroke-linecap="butt" stroke-linejoin="miter" stroke-miterlimit="10" stroke-dasharray="" stroke-dashoffset="0" font-family="Sans Serif" font-weight="normal" text-anchor="start" style="mix-blend-mode: normal"><tspan x="0" dy="0">V</tspan></text></g><g fill-rule="nonzero" stroke-width="1"><path d="M222.85507,295.41416l-21.26763,0.1378c-1.95763,0.01268 -3.55335,-1.84248 -3.56414,-4.14363l-0.13677,-29.16623c-0.01079,-2.30115 1.56744,-4.17689 3.52507,-4.18957l21.26763,-0.1378c1.95763,-0.01268 3.55335,1.84248 3.56414,4.14363l0.13677,29.16623c0.01079,2.30115 -1.56744,4.17689 -3.52507,4.18957z" fill="#9d9ca4"/><path d="M222.85507,293.91416l-21.26763,0.1378c-1.95763,0.01268 -3.55335,-1.84248 -3.56414,-4.14363l-0.13677,-29.16623c-0.01079,-2.30115 1.56744,-4.17689 3.52507,-4.18957l21.26763,-0.1378c1.95763,-0.01268 3.55335,1.84248 3.56414,4.14363l0.13677,29.16623c0.01079,2.30115 -1.56744,4.17689 -3.52507,4.18957z" fill="#ffffff"/><text transform="translate(205.83333,281.00001) scale(0.5,0.5)" font-size="40" xml:space="preserve" fill="#040404" fill-rule="nonzero" stroke="none" stroke-width="1" stroke-linecap="butt" stroke-linejoin="miter" stroke-miterlimit="10" stroke-dasharray="" stroke-dashoffset="0" font-family="Sans Serif" font-weight="normal" text-anchor="start" style="mix-blend-mode: normal"><tspan x="0" dy="0">B</tspan></text></g><g fill-rule="nonzero" stroke-width="1"><path d="M256.52173,295.41416l-21.26763,0.1378c-1.95763,0.01268 -3.55335,-1.84248 -3.56414,-4.14363l-0.13677,-29.16623c-0.01079,-2.30115 1.56744,-4.17689 3.52507,-4.18957l21.26763,-0.1378c1.95763,-0.01268 3.55335,1.84248 3.56414,4.14363l0.13677,29.16623c0.01079,2.30115 -1.56744,4.17689 -3.52507,4.18957z" fill="#9d9ca4"/><path d="M256.52173,293.91416l-21.26763,0.1378c-1.95763,0.01268 -3.55335,-1.84248 -3.56414,-4.14363l-0.13677,-29.16623c-0.01079,-2.30115 1.56744,-4.17689 3.52507,-4.18957l21.26763,-0.1378c1.95763,-0.01268 3.55335,1.84248 3.56414,4.14363l0.13677,29.16623c0.01079,2.30115 -1.56744,4.17689 -3.52507,4.18957z" fill="#ffffff"/><text transform="translate(238.16667,281.00001) scale(0.5,0.5)" font-size="40" xml:space="preserve" fill="#040404" fill-rule="nonzero" stroke="none" stroke-width="1" stroke-linecap="butt" stroke-linejoin="miter" stroke-miterlimit="10" stroke-dasharray="" stroke-dashoffset="0" font-family="Sans Serif" font-weight="normal" text-anchor="start" style="mix-blend-mode: normal"><tspan x="0" dy="0">N</tspan></text></g><g fill-rule="nonzero" stroke-width="1"><path d="M289.85507,295.41416l-21.26763,0.1378c-1.95763,0.01268 -3.55335,-1.84248 -3.56414,-4.14363l-0.13677,-29.16623c-0.01079,-2.30115 1.56744,-4.17689 3.52507,-4.18957l21.26763,-0.1378c1.95763,-0.01268 3.55335,1.84248 3.56414,4.14363l0.13677,29.16623c0.01079,2.30115 -1.56744,4.17689 -3.52507,4.18957z" fill="#9d9ca4"/><path d="M289.85507,293.91416l-21.26763,0.1378c-1.95763,0.01268 -3.55335,-1.84248 -3.56414,-4.14363l-0.13677,-29.16623c-0.01079,-2.30115 1.56744,-4.17689 3.52507,-4.18957l21.26763,-0.1378c1.95763,-0.01268 3.55335,1.84248 3.56414,4.14363l0.13677,29.16623c0.01079,2.30115 -1.56744,4.17689 -3.52507,4.18957z" fill="#ffffff"/><text transform="translate(269.66666,281.00001) scale(0.5,0.5)" font-size="40" xml:space="preserve" fill="#040404" fill-rule="nonzero" stroke="none" stroke-width="1" stroke-linecap="butt" stroke-linejoin="miter" stroke-miterlimit="10" stroke-dasharray="" stroke-dashoffset="0" font-family="Sans Serif" font-weight="normal" text-anchor="start" style="mix-blend-mode: normal"><tspan x="0" dy="0">M</tspan></text></g><g stroke-width="1"><path d="M339.53201,295.9105l-27.23881,0.14146c-2.50726,0.01301 -4.551,-1.89143 -4.56482,-4.25372l-0.17517,-29.94116c-0.01382,-2.36229 2.00752,-4.28787 4.51478,-4.30088l27.23881,-0.14146c2.50726,-0.01301 4.551,1.89144 4.56482,4.25373l0.17517,29.94115c0.01382,2.36229 -2.00753,4.28787 -4.51479,4.30089z" fill="#979ca3" fill-rule="nonzero"/><path d="M339.53201,294.24383l-27.23881,0.14146c-2.50726,0.01301 -4.551,-1.89143 -4.56482,-4.25372l-0.17517,-29.94116c-0.01382,-2.36229 2.00752,-4.28787 4.51478,-4.30088l27.23881,-0.14146c2.50726,-0.01301 4.551,1.89144 4.56482,4.25373l0.17517,29.94115c0.01382,2.36229 -2.00753,4.28787 -4.51479,4.30089z" fill="#aeb2be" fill-rule="nonzero"/><path d="M332.79438,268.00001c0.617,0.111 1.117,0.444 1.5,1c2.984,12.013 -1.516,16.179 -13.5,12.5c-2.333,-2.333 -4.667,-4.667 -7,-7c2.333,-2.333 4.667,-4.667 7,-7c4.189,-0.812 8.189,-0.645 12,0.5z" fill="#333739" fill-rule="evenodd"/><path d="M332.79438,268.00001c0,4 0,8 0,12c-6.912,1.484 -12.579,-0.349 -17,-5.5c4.091,-6.015 9.758,-8.181 17,-6.5z" fill="#acb1bc" fill-rule="evenodd"/><path d="M322.79438,272.00001c0.06,-0.543 0.393,-0.876 1,-1c1.892,2.544 3.725,2.544 5.5,0c0.507,1.496 0.007,2.663 -1.5,3.5c2.686,3.476 2.353,3.976 -1,1.5c-4.474,2.359 -4.808,1.859 -1,-1.5c-0.873,-1.045 -1.873,-1.878 -3,-2.5z" fill="#3b3f45" fill-rule="evenodd"/></g><g fill-rule="nonzero" stroke-width="1"><path d="M66.4186,343.91507l-27.923,0.13689c-2.57023,0.01259 -4.66532,-1.83024 -4.67949,-4.1161l-0.17957,-28.9725c-0.01416,-2.28587 2.05795,-4.14915 4.62819,-4.16173l27.923,-0.13689c2.57023,-0.01259 4.66532,1.83024 4.67948,4.1161l0.17957,28.9725c0.01417,2.28587 -2.05795,4.14915 -4.62819,4.16174z" fill="#979ca3"/><path d="M87.1686,343.91507l-27.923,0.13689c-2.57023,0.01259 -4.66532,-1.83024 -4.67949,-4.1161l-0.17957,-28.9725c-0.01416,-2.28587 2.05795,-4.14915 4.62819,-4.16173l27.923,-0.13689c2.57023,-0.01259 4.66532,1.83024 4.67948,4.1161l0.17957,28.9725c0.01417,2.28587 -2.05795,4.14915 -4.62819,4.16174z" fill="#979ca3"/><path d="M46.9186,343.91507l-27.923,0.13689c-2.57023,0.01259 -4.66532,-1.83024 -4.67949,-4.1161l-0.17957,-28.9725c-0.01416,-2.28587 2.05795,-4.14915 4.62819,-4.16173l27.923,-0.13689c2.57023,-0.01259 4.66532,1.83024 4.67948,4.1161l0.17957,28.9725c0.01417,2.28587 -2.05795,4.14915 -4.62819,4.16174z" fill="#979ca3"/><path d="M66.4186,342.2484l-27.923,0.13689c-2.57023,0.01259 -4.66532,-1.83024 -4.67949,-4.1161l-0.17957,-28.9725c-0.01416,-2.28587 2.05795,-4.14915 4.62819,-4.16173l27.923,-0.13689c2.57023,-0.01259 4.66532,1.83024 4.67948,4.1161l0.17957,28.9725c0.01417,2.28587 -2.05795,4.14915 -4.62819,4.16174z" fill="#aeb2be"/><path d="M87.1686,342.2484l-27.923,0.13689c-2.57023,0.01259 -4.66532,-1.83024 -4.67949,-4.1161l-0.17957,-28.9725c-0.01416,-2.28587 2.05795,-4.14915 4.62819,-4.16173l27.923,-0.13689c2.57023,-0.01259 4.66532,1.83024 4.67948,4.1161l0.17957,28.9725c0.01417,2.28587 -2.05795,4.14915 -4.62819,4.16174z" fill="#aeb2be"/><path d="M46.9186,342.2484l-27.923,0.13689c-2.57023,0.01259 -4.66532,-1.83024 -4.67949,-4.1161l-0.17957,-28.9725c-0.01416,-2.28587 2.05795,-4.14915 4.62819,-4.16173l27.923,-0.13689c2.57023,-0.01259 4.66532,1.83024 4.67948,4.1161l0.17957,28.9725c0.01417,2.28587 -2.05795,4.14915 -4.62819,4.16174z" fill="#aeb2be"/><text transform="translate(40.5,328.85517) scale(0.35136,0.35136)" font-size="40" xml:space="preserve" fill="#060606" fill-rule="nonzero" stroke="none" stroke-width="1" stroke-linecap="butt" stroke-linejoin="miter" stroke-miterlimit="10" stroke-dasharray="" stroke-dashoffset="0" font-family="Sans Serif" font-weight="normal" text-anchor="start" style="mix-blend-mode: normal"><tspan x="0" dy="0">123</tspan></text></g><g fill-rule="nonzero" stroke-width="1"><path d="M130.50194,343.74841l-27.923,0.13688c-2.57023,0.01259 -4.66532,-1.83024 -4.67949,-4.1161l-0.17957,-28.9725c-0.01417,-2.28586 2.05794,-4.14915 4.62818,-4.16174l27.923,-0.13688c2.57023,-0.01259 4.66532,1.83024 4.67949,4.1161l0.17957,28.9725c0.01417,2.28586 -2.05795,4.14915 -4.62818,4.16174z" fill="#9d9ca4"/><path d="M239.13542,343.74841l-117.61505,0.13688c-10.82613,0.01259 -11.79863,-37.23775 -0.97246,-37.25034l117.61505,-0.13688c10.82613,-0.01259 11.79859,37.23775 0.97246,37.25034z" fill="#9d9ca4"/><path d="M256.25194,343.74841l-27.923,0.13688c-2.57023,0.01259 -4.66532,-1.83024 -4.67949,-4.1161l-0.17957,-28.9725c-0.01417,-2.28586 2.05794,-4.14915 4.62818,-4.16174l27.923,-0.13688c2.57023,-0.01259 4.66532,1.83024 4.67949,4.1161l0.17957,28.9725c0.01417,2.28586 -2.05795,4.14915 -4.62818,4.16174z" fill="#9d9ca4"/><path d="M130.50194,342.24841l-27.923,0.13688c-2.57023,0.01259 -4.66532,-1.83024 -4.67949,-4.1161l-0.17957,-28.9725c-0.01417,-2.28586 2.05794,-4.14915 4.62818,-4.16174l27.923,-0.13688c2.57023,-0.01259 4.66532,1.83024 4.67949,4.1161l0.17957,28.9725c0.01417,2.28586 -2.05795,4.14915 -4.62818,4.16174z" fill="#ffffff"/><path d="M239.13542,342.24841l-117.61505,0.13688c-10.82613,0.01259 -11.79863,-37.23775 -0.97246,-37.25034l117.61505,-0.13688c10.82613,-0.01259 11.79859,37.23775 0.97246,37.25034z" fill="#ffffff"/><path d="M256.25194,342.24841l-27.923,0.13688c-2.57023,0.01259 -4.66532,-1.83024 -4.67949,-4.1161l-0.17957,-28.9725c-0.01417,-2.28586 2.05794,-4.14915 4.62818,-4.16174l27.923,-0.13688c2.57023,-0.01259 4.66532,1.83024 4.67949,4.1161l0.17957,28.9725c0.01417,2.28586 -2.05795,4.14915 -4.62818,4.16174z" fill="#ffffff"/><text transform="translate(159.5,328.1885) scale(0.35136,0.35136)" font-size="40" xml:space="preserve" fill="#060606" fill-rule="nonzero" stroke="none" stroke-width="1" stroke-linecap="butt" stroke-linejoin="miter" stroke-miterlimit="10" stroke-dasharray="" stroke-dashoffset="0" font-family="Sans Serif" font-weight="normal" text-anchor="start" style="mix-blend-mode: normal"><tspan x="0" dy="0">space</tspan></text></g><g fill-rule="nonzero" stroke-width="1"><path d="M327.58489,343.91508l-53.04785,0.13688c-4.8829,0.01259 -5.32153,-37.23775 -0.43861,-37.25034l53.04785,-0.13688c4.8829,-0.01259 5.32151,37.23775 0.43861,37.25034z" fill="#979ca3"/><path d="M299.25194,343.91507l-27.923,0.13689c-2.57023,0.01259 -4.66532,-1.83024 -4.67949,-4.1161l-0.17957,-28.9725c-0.01416,-2.28587 2.05795,-4.14915 4.62819,-4.16173l27.923,-0.13689c2.57023,-0.01259 4.66532,1.83024 4.67948,4.1161l0.17957,28.9725c0.01417,2.28587 -2.05795,4.14915 -4.62819,4.16174z" fill="#979ca3"/><path d="M339.75194,343.91507l-27.923,0.13689c-2.57023,0.01259 -4.66532,-1.83024 -4.67949,-4.1161l-0.17957,-28.9725c-0.01416,-2.28587 2.05795,-4.14915 4.62819,-4.16173l27.923,-0.13689c2.57023,-0.01259 4.66532,1.83024 4.67948,4.1161l0.17957,28.9725c0.01417,2.28587 -2.05795,4.14915 -4.62819,4.16174z" fill="#979ca3"/><path d="M327.58489,342.24841l-53.04785,0.13688c-4.8829,0.01259 -5.32153,-37.23775 -0.43861,-37.25034l53.04785,-0.13688c4.8829,-0.01259 5.32151,37.23775 0.43861,37.25034z" fill="#aeb2be"/><path d="M299.25194,342.2484l-27.923,0.13689c-2.57023,0.01259 -4.66532,-1.83024 -4.67949,-4.1161l-0.17957,-28.9725c-0.01416,-2.28587 2.05795,-4.14915 4.62819,-4.16173l27.923,-0.13689c2.57023,-0.01259 4.66532,1.83024 4.67948,4.1161l0.17957,28.9725c0.01417,2.28587 -2.05795,4.14915 -4.62819,4.16174z" fill="#aeb2be"/><path d="M339.75194,342.2484l-27.923,0.13689c-2.57023,0.01259 -4.66532,-1.83024 -4.67949,-4.1161l-0.17957,-28.9725c-0.01416,-2.28587 2.05795,-4.14915 4.62819,-4.16173l27.923,-0.13689c2.57023,-0.01259 4.66532,1.83024 4.67948,4.1161l0.17957,28.9725c0.01417,2.28587 -2.05795,4.14915 -4.62819,4.16174z" fill="#aeb2be"/><text transform="translate(285.16667,328.13154) scale(0.33046,0.33046)" font-size="40" xml:space="preserve" fill="#060606" fill-rule="nonzero" stroke="none" stroke-width="1" stroke-linecap="butt" stroke-linejoin="miter" stroke-miterlimit="10" stroke-dasharray="" stroke-dashoffset="0" font-family="Sans Serif" font-weight="normal" text-anchor="start" style="mix-blend-mode: normal"><tspan x="0" dy="0">return</tspan></text></g><path d="M2.26348,355.02371v-213.19966h354.98268v213.19966z" fill="none" fill-rule="nonzero" stroke-width="0"/></g></g></svg>