<svg version="1.1" xmlns="http://www.w3.org/2000/svg" xmlns:xlink="http://www.w3.org/1999/xlink" width="29.25" height="32.33261" viewBox="0,0,29.25,32.33261"><g transform="translate(-164.75,-302.81739)"><g data-paper-data="{&quot;isPaintingLayer&quot;:true}" fill-rule="nonzero" stroke-linecap="butt" stroke-linejoin="miter" stroke-miterlimit="10" stroke-dasharray="" stroke-dashoffset="0" style="mix-blend-mode: normal"><path d="M164.75,335.15v-32.33261h29.25v32.33261z" fill-opacity="0.07451" fill="#ffffff" stroke="#000000" stroke-width="0"/><path d="M178.85153,317.75588c-0.85268,0.91403 -1.7667,0.06135 -1.7667,0.06135l-0.60926,-0.56886c-0.08532,-0.07593 -0.17089,-0.15161 -0.2567,-0.22702c-2.73992,1.09367 -7.71619,-1.36886 -8.28065,-3.92786c-0.25429,-1.15281 0.43541,-2.35445 0.97381,-3.40505c0.4961,-0.96806 3.11173,-1.98688 3.73616,-2.28791c0,0 0.69132,-0.33063 1.25027,0.06715c0.30188,-0.08823 0.5691,-0.05483 0.5691,-0.05483l1.90558,0.70386c0.41496,0.69903 1.05159,1.30749 1.24488,2.09709c0.09009,0.36801 0.00129,2.88594 -0.14944,4.58197c0.22416,0.19301 0.44679,0.38774 0.6679,0.58407l0.6537,0.60933c0,0 0.91403,0.85268 0.06135,1.7667zM172.8233,314.28621c0,0 -1.00801,-0.7392 -0.2688,-1.74721c0.7392,-1.00801 1.74721,-0.2688 1.74721,-0.2688c0.40873,0.3001 0.81281,0.60674 1.2123,0.91938c-0.14964,-1.37435 -0.82585,-3.09662 -1.26214,-3.74988l-0.09442,0.45386c0,0 -0.26646,-0.03331 -0.53694,-0.19255c-0.68872,0.27881 -3.75558,1.4123 -3.26487,2.75533c0.12233,0.33482 1.5097,1.43835 2.80412,2.07874c-0.11178,-0.08348 -0.22394,-0.16644 -0.33648,-0.24886z" fill="#ffffff" stroke="none" stroke-width="0.5"/><path d="M189.21901,312.66515c-0.08577,-0.37102 -0.09495,-1.00277 0.65948,-1.37999c1.11803,-0.55902 1.67705,0.55902 1.67705,0.55902l0.16081,1.28979c-1.57317,3.73049 -4.89516,8.09295 -8.26151,2.84852c-0.79659,-1.24101 -0.67333,-2.87157 -0.98846,-4.31217c0,0 -0.26712,-1.22113 0.954,-1.48825c1.22113,-0.26712 1.48825,0.954 1.48825,0.954c0.49766,2.27503 0.81846,6.90841 3.30213,3.29611c0.20522,-0.29847 0.46299,-0.56347 0.63264,-0.8835c0.14997,-0.2829 0.26337,-0.58295 0.37561,-0.88354z" fill="#ffffff" stroke="none" stroke-width="0.5"/><path d="M173.89559,333.02544c-1.24724,0.08309 -1.33032,-1.16415 -1.33032,-1.16415l-0.14538,-2.21819c-0.1533,-0.79294 -0.3066,-1.58589 -0.45989,-2.37883c0,0 -0.23606,-1.22751 0.99145,-1.46357c1.22751,-0.23606 1.46357,0.99145 1.46357,0.99145c0.16145,0.84373 0.3229,1.68747 0.48434,2.5312l0.16038,2.37178c0,0 0.08309,1.24724 -1.16415,1.33032z" fill="#ffffff" stroke="none" stroke-width="0.5"/><path d="M172.3125,323.0282c0,-0.69036 0.55964,-1.25 1.25,-1.25c0.69036,0 1.25,0.55964 1.25,1.25c0,0.69036 -0.55964,1.25 -1.25,1.25c-0.69036,0 -1.25,-0.55964 -1.25,-1.25z" fill="#ffffff" stroke="none" stroke-width="0.5"/><path d="M192.56227,324.75398c0.02422,1.24977 -1.22555,1.27398 -1.22555,1.27398l-1.35567,0.02533c-0.6948,0.06798 -1.38858,0.13215 -2.08189,0.19258c-0.07694,1.15069 -0.14378,2.30214 -0.19182,3.4572l-0.02054,0.61681c0,0 -0.04168,1.2493 -1.29098,1.20763c-1.2493,-0.04168 -1.20763,-1.29098 -1.20763,-1.29098l0.02131,-0.63753c0.04392,-1.05217 0.10303,-2.10141 0.17108,-3.14981c-1.79039,0.13305 -3.58188,0.2418 -5.38363,0.3276c0,0 -1.24859,0.05946 -1.30804,-1.18913c-0.05946,-1.24859 1.18913,-1.30804 1.18913,-1.30804c1.90144,-0.09054 3.79109,-0.20768 5.68021,-0.35145c0.04346,-0.58158 0.08813,-1.16341 0.13293,-1.74584c0,0 0.09587,-1.24632 1.34219,-1.15045c1.24632,0.09587 1.15045,1.34219 1.15045,1.34219c-0.03455,0.4491 -0.06904,0.89783 -0.10297,1.34635c0.58434,-0.05175 1.16911,-0.10605 1.75463,-0.16289l1.4528,-0.0291c0,0 1.24977,-0.02422 1.27398,1.22555z" fill="#ffffff" stroke="none" stroke-width="0.5"/></g></g></svg>