<svg version="1.1" xmlns="http://www.w3.org/2000/svg" xmlns:xlink="http://www.w3.org/1999/xlink" width="29.875" height="30.3564" viewBox="0,0,29.875,30.3564"><g transform="translate(-163.8125,-304.475)"><g data-paper-data="{&quot;isPaintingLayer&quot;:true}" fill-rule="nonzero" stroke-linecap="butt" stroke-linejoin="miter" stroke-miterlimit="10" stroke-dasharray="" stroke-dashoffset="0" style="mix-blend-mode: normal"><path d="M163.8125,334.8314v-30.3564h29.875v30.3564z" fill="#2c2c2c" stroke="#000000" stroke-width="0"/><path d="M186.73131,327.58264c-1.02095,0.40346 -1.39202,-0.7066 -1.39202,-0.7066l-0.58876,-1.76693c-1.46468,-3.18419 -3.43281,-5.88611 -4.9735,-8.97801c-0.22129,-0.44407 -0.14569,-1.04798 -0.44198,-1.43696c-0.14224,-0.18673 0.00045,0.5049 -0.10545,0.71827c-0.56181,1.13204 -1.38838,2.0838 -2.05047,3.14983c-1.18959,1.91534 -1.76769,3.6303 -2.52342,5.78874c0,0 -0.38648,1.10383 -1.40169,0.68362c-1.01522,-0.42021 -0.62874,-1.52404 -0.62874,-1.52404c1.07485,-3.06991 2.2217,-5.56584 3.98333,-8.25644c0.4459,-0.68104 2.05297,-3.11312 2.9132,-2.91344c0.98878,0.22952 1.40066,1.5891 2.03887,2.44173c2.14658,2.86778 3.68123,6.10877 5.18603,9.39434l0.63447,1.89238c0,0 0.37107,1.11006 -0.64988,1.51352z" data-paper-data="{&quot;index&quot;:null}" fill="#ffffff" stroke="none" stroke-width="0.5"/></g></g></svg>