<svg version="1.1" xmlns="http://www.w3.org/2000/svg" xmlns:xlink="http://www.w3.org/1999/xlink" width="127.60472" height="127.60472" viewBox="0,0,127.60472,127.60472"><defs><linearGradient x1="179.99999" y1="300.43133" x2="179.99999" y2="338.06868" gradientUnits="userSpaceOnUse" id="color-1"><stop offset="0" stop-color="#ffffff"/><stop offset="1" stop-color="#f0f0f0"/></linearGradient></defs><g transform="translate(-116.19764,-256.19764)"><g data-paper-data="{&quot;isPaintingLayer&quot;:true}" fill-rule="nonzero" stroke="none" stroke-linecap="butt" stroke-linejoin="miter" stroke-miterlimit="10" stroke-dasharray="" stroke-dashoffset="0" style="mix-blend-mode: normal"><path d="M190.72173,339.43082l-21.26763,0.1378c-1.95763,0.01268 -3.55335,-1.84248 -3.56414,-4.14363l-0.13677,-29.16623c-0.01079,-2.30115 1.56744,-4.17689 3.52507,-4.18957l21.26763,-0.1378c1.95763,-0.01268 3.55335,1.84248 3.56414,4.14363l0.13677,29.16623c0.01079,2.30115 -1.56744,4.17689 -3.52507,4.18957z" fill="#9d9ca4" stroke-width="1"/><path d="M190.72173,339.43082l-21.26763,0.1378c-1.95763,0.01268 -3.55335,-1.84248 -3.56414,-4.14363l-0.13677,-29.16623c-0.01079,-2.30115 1.56744,-4.17689 3.52507,-4.18957l21.26763,-0.1378c1.95763,-0.01268 3.55335,1.84248 3.56414,4.14363l0.13677,29.16623c0.01079,2.30115 -1.56744,4.17689 -3.52507,4.18957z" fill="#9d9ca4" stroke-width="1"/><path d="M190.72173,337.93082l-21.26763,0.1378c-1.95763,0.01268 -3.55335,-1.84248 -3.56414,-4.14363l-0.13677,-29.16623c-0.01079,-2.30115 1.56744,-4.17689 3.52507,-4.18957l21.26763,-0.1378c1.95763,-0.01268 3.55335,1.84248 3.56414,4.14363l0.13677,29.16623c0.01079,2.30115 -1.56744,4.17689 -3.52507,4.18957z" fill="#ffffff" stroke-width="1"/><path d="M190.79405,337.93082l-21.41109,0.1378c-1.97084,0.01268 -3.57732,-1.84248 -3.58818,-4.14363l-0.13769,-29.16623c-0.01086,-2.30115 1.57801,-4.17689 3.54885,-4.18957l21.41109,-0.1378c1.97084,-0.01268 3.57732,1.84248 3.58818,4.14363l0.13769,29.16623c0.01086,2.30115 -1.57801,4.17689 -3.54885,4.18957z" fill="url(#color-1)" stroke-width="1"/><path d="M116.19764,383.80236v-127.60472h127.60472v127.60472z" fill="none" stroke-width="0"/></g></g></svg>