<svg version="1.1" xmlns="http://www.w3.org/2000/svg" xmlns:xlink="http://www.w3.org/1999/xlink" width="348.13925" height="399.60637" viewBox="0,0,348.13925,399.60637"><g transform="translate(-9.03396,-197.41901)"><g data-paper-data="{&quot;isPaintingLayer&quot;:true}" fill-rule="nonzero" stroke-linecap="butt" stroke-linejoin="miter" stroke-miterlimit="10" stroke-dasharray="" stroke-dashoffset="0" style="mix-blend-mode: normal"><path d="M14.5337,596.02538v-271.02703h336.56225v271.02703z" fill="#0a0a0a" stroke="#000000" stroke-width="2"/><text transform="translate(9.57207,293.79191) scale(1.07622,1.07622)" font-size="40" xml:space="preserve" fill="#ffffff" fill-rule="nonzero" stroke="#000000" stroke-width="1" stroke-linecap="butt" stroke-linejoin="miter" stroke-miterlimit="10" stroke-dasharray="" stroke-dashoffset="0" font-family="Sans Serif" font-weight="normal" text-anchor="start" style="mix-blend-mode: normal"><tspan x="0" dy="0">Puzzle complete!</tspan></text><path d="M160.388,424.54235c2.69121,1.35089 5.30315,2.72371 7.75166,4.13494c3.59296,2.07085 4.94211,4.78161 7.88651,7.05438c5.76332,4.44863 15.07588,8.61854 22.11815,12.67579c14.44401,8.3216 29.95981,16.21841 46.25571,23.80209c0.23955,-1.44718 1.19234,-2.88452 1.62151,-4.32908c1.63522,-5.5038 3.27043,-11.00761 4.90565,-16.51142c4.11955,-13.86562 6.72885,-27.97906 5.26693,-41.94272c-0.00557,-0.05322 -1.16386,-11.11432 -1.1654,-11.13876c-0.05893,-0.92836 0.66308,-1.89982 0.0528,-2.78611c-1.08164,-1.57079 -3.37085,-2.91351 -4.991,-4.38537c-2.99337,-2.71943 -3.58849,-4.79056 -10.75275,-6.07098c-3.23607,-0.57837 -6.91851,-0.31852 -10.37776,-0.47779c-2.42597,-0.09345 -4.87043,-0.11538 -7.27791,-0.28034c-1.92732,-0.13206 -4.41451,-1.27784 -5.69215,-0.60837c-1.85664,0.97289 -0.09619,2.58337 -0.50918,3.85787c-1.52254,4.69866 -2.09001,7.99465 -2.09001,12.85906v3.3323c0,1.53365 -2.73343,2.77692 -6.10528,2.77692c-2.11189,0 -3.97332,-0.48772 -5.06958,-1.22903l-6.90051,-4.53356c-10.81671,-5.32082 -17.71654,-11.94081 -29.06834,-17.18922c-4.57696,-2.11612 -8.05224,-4.85166 -13.62924,-6.39349c-9.22919,-2.55153 -21.78874,-3.85756 -32.23188,-4.73827c-3.96592,-0.33446 -7.8248,-1.04414 -11.13181,0.95238c-3.59511,2.17047 -4.63181,5.04048 -5.93575,7.69247c-0.83638,1.70103 -0.84658,3.46529 -1.38441,5.19109c-0.25877,0.83031 -1.55699,1.67395 -1.00439,2.474c1.02496,1.48391 3.67961,2.62266 5.44484,3.95483c5.91045,4.46038 10.88587,8.46379 18.06393,12.53321c10.2761,5.84245 19.20803,9.64793 32.66926,14.02127l3.21057,1.40686c0,0 4.27016,1.94223 0.06982,3.89505zM132.83533,417.50338c-6.27052,-2.60852 -11.95515,-5.41674 -17.93183,-8.81478c-7.46838,-4.25743 -13.17113,-8.46795 -19.07633,-13.20425c-2.33009,-1.86888 -5.60502,-3.56853 -6.86026,-5.63974c-0.83623,-1.37982 0.49958,-2.85403 0.85076,-4.27637c1.0398,-4.21155 3.64617,-12.61915 10.36157,-15.9106c3.38252,-1.65789 8.47011,-2.50892 13.26986,-3.10022c2.75517,-0.33942 21.15217,1.44163 21.59327,1.50019c0.9798,0.13007 23.81633,4.33046 24.34197,4.47874c2.79778,0.78928 4.69325,2.10067 7.01446,3.16257c8.97264,4.10483 17.55599,7.99825 24.99782,12.71222c3.45969,2.19152 7.08404,4.10621 9.78787,6.18113c0.13415,-2.72934 0.65019,-5.39029 2.37645,-8.26061c1.41486,-2.35256 0.79476,-5.35772 4.7885,-6.98529c3.03826,-1.23818 17.02942,-0.48729 21.87096,-0.30325c4.61972,0.29466 9.5905,0.0282 13.85914,0.88399c11.32772,2.27102 19.48485,9.1081 22.86288,14.25481c1.97919,3.01546 0.53832,6.28926 0.86763,9.43266c1.70684,16.29232 0.02645,32.31286 -4.78229,48.4982c-2.23236,7.51366 -3.86279,14.76998 -7.65144,21.94696l1.11058,0.06826l-1.62369,5.46502c-0.3618,1.37661 -2.93779,2.44382 -6.06182,2.44382c-2.1528,0 -4.04536,-0.5068 -5.13242,-1.27239l-4.57857,-3.12376c-17.99369,-8.11549 -34.84169,-16.75341 -50.52995,-25.79185c-7.5083,-4.32575 -17.09697,-8.74612 -23.27911,-13.47885c-2.61616,-2.0028 -3.54102,-4.46505 -6.76617,-6.27482c-7.46911,-4.19126 -16.14638,-8.06681 -24.12647,-12.05943c0,0 -2.32211,-1.16181 -1.55343,-2.53237z" fill="#ff0000" stroke="none" stroke-width="0.5"/><path d="M115.74283,565.36388v-37.76606h154.99002v37.76606z" fill="#000000" stroke="#ffffff" stroke-width="2"/><text transform="translate(131.69344,553.67544) scale(0.55538,0.55538)" font-size="40" xml:space="preserve" fill="#ffffff" fill-rule="nonzero" stroke="none" stroke-width="1" stroke-linecap="butt" stroke-linejoin="miter" stroke-miterlimit="10" stroke-dasharray="" stroke-dashoffset="0" font-family="Sans Serif" font-weight="normal" text-anchor="start" style="mix-blend-mode: normal"><tspan x="0" dy="0">back to title</tspan></text><text transform="translate(164.31483,240.40927) scale(0.98828,0.98828)" font-size="40" xml:space="preserve" fill="#ffffff" fill-rule="nonzero" stroke="none" stroke-width="1" stroke-linecap="butt" stroke-linejoin="miter" stroke-miterlimit="10" stroke-dasharray="" stroke-dashoffset="0" font-family="Sans Serif" font-weight="normal" text-anchor="start" style="mix-blend-mode: normal"><tspan x="0" dy="0">/\</tspan></text></g></g></svg>