<svg version="1.1" xmlns="http://www.w3.org/2000/svg" xmlns:xlink="http://www.w3.org/1999/xlink" width="83.5" height="119.80435" viewBox="0,0,83.5,119.80435"><defs><linearGradient x1="193.05032" y1="240.27557" x2="193.05032" y2="335.31118" gradientUnits="userSpaceOnUse" id="color-1"><stop offset="0" stop-color="#f9f9f9"/><stop offset="1" stop-color="#ffffff"/></linearGradient></defs><g transform="translate(-150.75,-225.29069)"><g data-paper-data="{&quot;isPaintingLayer&quot;:true}" fill-rule="nonzero" stroke="none" stroke-linecap="butt" stroke-linejoin="miter" stroke-miterlimit="10" stroke-dasharray="" stroke-dashoffset="0" style="mix-blend-mode: normal"><text transform="translate(172.36667,325.01667) scale(0.5,0.5)" font-size="40" xml:space="preserve" fill="#ff0000" fill-rule="nonzero" stroke="none" stroke-width="1" stroke-linecap="butt" stroke-linejoin="miter" stroke-miterlimit="10" stroke-dasharray="" stroke-dashoffset="0" font-family="Sans Serif" font-weight="normal" text-anchor="start" style="mix-blend-mode: normal"><tspan x="0" dy="0">Q</tspan></text><text transform="translate(172.36667,325.01667) scale(0.5,0.5)" font-size="40" xml:space="preserve" fill="#040404" fill-rule="nonzero" stroke="none" stroke-width="1" stroke-linecap="butt" stroke-linejoin="miter" stroke-miterlimit="10" stroke-dasharray="" stroke-dashoffset="0" font-family="Sans Serif" font-weight="normal" text-anchor="start" style="mix-blend-mode: normal"><tspan x="0" dy="0">Q</tspan></text><path d="M189.53443,336.10423c-3.65256,1.21849 -24.00635,-0.51092 -24.00635,-0.51092c0,0 -1.47672,-34.67286 -1.49892,-38.57154l-0.28131,-53.12878c-0.02218,-3.89868 3.22387,-7.07663 7.25028,-7.09812l43.74281,-0.23347c4.02641,-0.02148 7.30846,3.12161 7.33064,7.0203l0.28131,43.27163l-32.24988,18.57805c0,0 0.83563,30.20441 -0.56857,30.67285z" fill="url(#color-1)" stroke-width="0"/><path d="M150.75,345.09503v-119.80435h83.5v119.80435z" fill="none" stroke-width="0"/></g></g></svg>