<svg version="1.1" xmlns="http://www.w3.org/2000/svg" xmlns:xlink="http://www.w3.org/1999/xlink" width="90.32104" height="99.77324" viewBox="0,0,90.32104,99.77324"><g transform="translate(-134.83948,-270.11338)"><g data-paper-data="{&quot;isPaintingLayer&quot;:true}" fill-rule="nonzero" stroke="none" stroke-linecap="butt" stroke-linejoin="miter" stroke-miterlimit="10" stroke-dasharray="" stroke-dashoffset="0" style="mix-blend-mode: normal"><path d="M134.83948,369.88662v-99.77324h90.32104v99.77324z" fill="none" stroke-width="0"/><path d="M193.73201,340.01048l-27.23881,0.14146c-2.50726,0.01301 -4.551,-1.89143 -4.56482,-4.25372l-0.17517,-29.94116c-0.01382,-2.36229 2.00752,-4.28787 4.51478,-4.30088l27.23881,-0.14146c2.50726,-0.01301 4.551,1.89144 4.56482,4.25373l0.17517,29.94115c0.01382,2.36229 -2.00753,4.28787 -4.51479,4.30089z" fill="#979ca3" stroke-width="1"/><path d="M193.73201,338.34381l-27.23881,0.14146c-2.50726,0.01301 -4.551,-1.89143 -4.56482,-4.25372l-0.17517,-29.94116c-0.01382,-2.36229 2.00752,-4.28787 4.51478,-4.30088l27.23881,-0.14146c2.50726,-0.01301 4.551,1.89144 4.56482,4.25373l0.17517,29.94115c0.01382,2.36229 -2.00753,4.28787 -4.51479,4.30089z" fill="#aeb2be" stroke-width="1"/></g></g></svg>