<svg version="1.1" xmlns="http://www.w3.org/2000/svg" xmlns:xlink="http://www.w3.org/1999/xlink" width="79.5" height="19.83333" viewBox="0,0,79.5,19.83333"><g transform="translate(-106.03571,-308.58334)"><g data-paper-data="{&quot;isPaintingLayer&quot;:true}" fill-rule="nonzero" stroke-linecap="butt" stroke-linejoin="miter" stroke-miterlimit="10" stroke-dasharray="" stroke-dashoffset="0" style="mix-blend-mode: normal"><path d="M106.03571,328.41667v-19.83333h79.5v19.83333z" fill="#ffffff" stroke="#000000" stroke-width="0"/><text transform="translate(109.86905,322.77968) scale(0.31788,0.31788)" font-size="40" xml:space="preserve" fill="#ff2929" fill-rule="nonzero" stroke="none" stroke-width="1" stroke-linecap="butt" stroke-linejoin="miter" stroke-miterlimit="10" stroke-dasharray="" stroke-dashoffset="0" font-family="Marker" font-weight="normal" text-anchor="start" style="mix-blend-mode: normal"><tspan x="0" dy="0">DISABLED</tspan></text><path d="M176.575,318.01138c-0.46339,0.53868 -0.90742,1.13482 -1.35486,1.7426c1.17433,0.786 2.39019,1.75452 1.53063,3.04387c-0.85985,1.28978 -2.29786,0.71643 -3.67476,-0.35219c-0.44057,0.46382 -0.90945,0.88441 -1.42128,1.23228c-1.45804,0.99098 -2.74586,-0.13028 -2.61766,-1.79687c0.06344,-0.82475 0.74537,-1.39198 1.44335,-1.95307c-0.376,-0.42004 -0.67572,-0.77021 -0.86231,-0.9717c-0.254,-0.27429 -1.99269,-2.03778 -1.95665,-2.32613l-0.12575,-0.63015c1.1586,-1.1586 1.96784,-1.47815 2.64525,-1.28806c0.92866,0.2606 1.60955,1.479 2.60309,2.8065c1.45067,-1.67346 2.55412,-2.76185 4.84776,-4.02984c0.40316,-0.22288 2.25885,-0.84648 2.6239,-0.20764c0.48225,0.28462 0.80576,0.80957 0.80576,1.41009c0,0.90364 -0.73254,1.63618 -1.63618,1.63618c-0.06448,0 -0.1281,-0.00373 -0.19063,-0.01099c-0.8033,0.33875 -1.68157,0.55811 -2.65966,1.69511z" fill="#ff2929" stroke="none" stroke-width="0.5"/></g></g></svg>