<svg version="1.1" xmlns="http://www.w3.org/2000/svg" xmlns:xlink="http://www.w3.org/1999/xlink" width="25.16481" height="28.30192" viewBox="0,0,25.16481,28.30192"><g transform="translate(-137.65516,-304.65324)"><g data-paper-data="{&quot;isPaintingLayer&quot;:true}" fill="#ffffff" fill-rule="nonzero" stroke="none" stroke-width="0.5" stroke-linecap="butt" stroke-linejoin="miter" stroke-miterlimit="10" stroke-dasharray="" stroke-dashoffset="0" style="mix-blend-mode: normal"><path d="M161.99014,305.44317c0.23323,0.13122 0.45562,0.35169 0.63314,0.70673c0.70249,1.40499 -0.70249,2.10748 -0.70249,2.10748l-0.37791,-0.75582c-0.00356,0.00237 -0.00711,0.00473 -0.01068,0.00707c-0.00776,1.18021 0.42029,2.32466 0.60831,3.49047c0.02624,0.16274 0.02028,3.71999 0.02028,4.02159c0,3.56054 0,7.12107 0,10.6816c0,2.47069 0.74862,6.15177 -2.6727,7.21814c-0.8543,0.26628 -1.44213,-1.07317 -2.23728,-1.48361c-1.13196,-0.58429 -2.49289,-0.61616 -3.63429,-1.18179c-1.22974,-0.60942 -2.37666,-1.41768 -3.68096,-1.84483c-0.94356,-0.47787 -1.96615,-0.82428 -2.83067,-1.43359c-1.26549,-0.8919 -2.14997,-2.3265 -3.54164,-3.00488c-1.37122,-0.66841 -2.98385,-1.01601 -4.07572,-2.0813c-0.73394,-0.71607 -1.86602,-1.44663 -1.8316,-2.47144c0.08417,-2.50673 3.52062,-2.89274 4.85839,-4.25239c2.34663,-2.38502 5.04065,-3.90082 7.74343,-5.82655c1.35858,-0.968 2.41824,-2.34187 3.85141,-3.19555c1.89123,-1.12653 4.34942,-1.47102 6.4808,-1.49126c0,0 0.99335,0 1.40018,0.78993z"/></g></g></svg>