<svg version="1.1" xmlns="http://www.w3.org/2000/svg" xmlns:xlink="http://www.w3.org/1999/xlink" width="23" height="26.8" viewBox="0,0,23,26.8"><g transform="translate(-168.5,-306.6)"><g data-paper-data="{&quot;isPaintingLayer&quot;:true}" fill-rule="nonzero" stroke-linecap="butt" stroke-linejoin="miter" stroke-miterlimit="10" stroke-dasharray="" stroke-dashoffset="0" style="mix-blend-mode: normal"><path d="M168.5,333.4v-26.8h23v26.8z" fill-opacity="0.07451" fill="#ffffff" stroke="#000000" stroke-width="0"/><path d="M185.64451,314.67135c-0.10468,0.99451 -1.09919,0.88982 -1.09919,0.88982l-1.84773,-0.19588c-2.57567,0.00182 -5.123,0.06462 -7.69503,0.19999c0,0 -0.99862,0.05256 -1.05118,-0.94606c-0.05256,-0.99862 0.94606,-1.05118 0.94606,-1.05118c2.64221,-0.13906 5.2589,-0.20178 7.90497,-0.20001l1.95227,0.20412c0,0 0.99451,0.10468 0.88982,1.09919z" fill="#ffffff" stroke="none" stroke-width="0.5"/><path d="M184.35,319.06667c0,1 -1,1 -1,1c-2.3,0 -4.8,0 -7.1,0c0,0 -1,0 -1,-1c0,-1 1,-1 1,-1c2.3,0 4.6,0 6.9,0h0.2c0,0 1,0 1,1z" fill="#ffffff" stroke="none" stroke-width="0.5"/><path d="M186.15,324.36506c0.0016,1 -0.9984,1.0016 -0.9984,1.0016l-0.90218,0.00144c-3.32583,0.00588 -6.65077,0.11911 -9.97562,0.19827c0,0 -0.99972,0.0238 -1.02352,-0.97591c-0.0238,-0.99972 0.97591,-1.02352 0.97591,-1.02352c3.33953,-0.07951 6.6791,-0.19271 10.01962,-0.19884l0.90258,-0.00145c0,0 1,-0.0016 1.0016,0.9984z" fill="#ffffff" stroke="none" stroke-width="0.5"/></g></g></svg>