<svg version="1.1" xmlns="http://www.w3.org/2000/svg" xmlns:xlink="http://www.w3.org/1999/xlink" width="80.86884" height="80.86884" viewBox="0,0,80.86884,80.86884"><g transform="translate(-139.56558,-279.56558)"><g data-paper-data="{&quot;isPaintingLayer&quot;:true}" fill-rule="nonzero" stroke-linecap="butt" stroke-linejoin="miter" stroke-miterlimit="10" stroke-dasharray="" stroke-dashoffset="0" style="mix-blend-mode: normal"><path d="M220.43442,279.56558v80.86884h-80.86884v-80.86884z" data-paper-data="{&quot;index&quot;:null}" fill="none" stroke="none" stroke-width="0"/><path d="M178.07718,320.0802c0.53033,0.53033 0,1.06066 0,1.06066l-0.28583,0.2314c-1.28809,0.64101 -2.46336,1.48719 -3.62424,2.34286c0.33991,0.06851 0.63553,0.13192 0.81594,0.14893c2.72862,0.25729 5.45943,0.54194 8.20017,0.54194c0.28895,0 3.58969,0.24225 3.69741,0.08703c0.35956,-0.51811 -0.61968,-4.4876 -0.71627,-5.261c-0.12939,-1.63583 0.13932,-6.36426 -1.40507,-7.54825c-0.34327,-0.26317 -1.92906,-0.05051 -2.25788,-0.05051c-2.92572,0 -6.27802,-0.19802 -9.05484,0.86134c0,0 -0.70225,0.26335 -0.96559,-0.4389c-0.26335,-0.70225 0.4389,-0.96559 0.4389,-0.96559c2.9828,-1.10272 6.44625,-0.95684 9.58152,-0.95684c0.85339,0 2.35629,-0.22651 3.10575,0.31313c2.11263,1.52119 1.87379,6.40156 2.04947,8.63357c0.1579,1.26206 1.22173,5.33189 0.37464,6.37536c-0.4641,0.57169 -2.71699,0.45028 -3.34805,0.45067c-2.21134,0.00137 -4.35424,-0.06306 -6.55822,-0.26694c-1.37671,-0.12735 -2.79095,-0.15355 -4.15563,-0.37957c-0.13003,-0.02154 -0.32162,-0.0561 -0.50217,-0.10533c0.66673,0.69495 1.84148,2.06099 2.03368,2.26054c0.37987,0.29137 0.75975,0.58273 1.13962,0.8741l0.38313,0.22408c0,0 0.64312,0.38587 0.25725,1.02899c-0.38587,0.64312 -1.02899,0.25725 -1.02899,0.25725l-0.52596,-0.32138c-0.40801,-0.31469 -0.81601,-0.62939 -1.22402,-0.94408c-0.78669,-0.8101 -3.48947,-3.12439 -2.7211,-4.60312c0.02219,-0.34429 0.32692,-0.56437 0.32692,-0.56437c1.62594,-1.17427 3.21499,-2.43284 5.0128,-3.33554l-0.10401,0.04958c0,0 0.53033,-0.53033 1.06066,0z" data-paper-data="{&quot;index&quot;:null}" fill="#1c1c1c" stroke="#000000" stroke-width="0.5"/></g></g></svg>