<svg version="1.1" xmlns="http://www.w3.org/2000/svg" xmlns:xlink="http://www.w3.org/1999/xlink" width="25.16481" height="28.30192" viewBox="0,0,25.16481,28.30192"><g transform="translate(-196.9668,-306.56652)"><g data-paper-data="{&quot;isPaintingLayer&quot;:true}" fill="#ffffff" fill-rule="nonzero" stroke="none" stroke-width="0.5" stroke-linecap="butt" stroke-linejoin="miter" stroke-miterlimit="10" stroke-dasharray="" stroke-dashoffset="0" style="mix-blend-mode: normal"><path d="M197.79663,307.35645c0.40684,-0.78993 1.40018,-0.78993 1.40018,-0.78993c2.13137,0.02023 4.58956,0.36473 6.4808,1.49126c1.43318,0.85368 2.49283,2.22755 3.85141,3.19555c2.70278,1.92573 5.3968,3.44153 7.74343,5.82655c1.33777,1.35965 4.77422,1.74565 4.85839,4.25239c0.03441,1.02481 -1.09766,1.75537 -1.8316,2.47144c-1.09187,1.06529 -2.7045,1.41288 -4.07572,2.0813c-1.39167,0.67838 -2.27615,2.11298 -3.54164,3.00488c-0.86452,0.60931 -1.88711,0.95572 -2.83067,1.43359c-1.3043,0.42715 -2.45122,1.23541 -3.68096,1.84483c-1.1414,0.56563 -2.50233,0.5975 -3.63429,1.18179c-0.79515,0.41044 -1.38298,1.74989 -2.23728,1.48361c-3.42131,-1.06637 -2.6727,-4.74746 -2.6727,-7.21814c0,-3.56054 0,-7.12107 0,-10.6816c0,-0.30161 -0.00597,-3.85885 0.02028,-4.02159c0.18802,-1.16581 0.61607,-2.31026 0.60831,-3.49047c-0.00357,-0.00234 -0.00713,-0.00469 -0.01068,-0.00707l-0.37791,0.75582c0,0 -1.40498,-0.70249 -0.70249,-2.10748c0.17752,-0.35505 0.39991,-0.57551 0.63314,-0.70673z" data-paper-data="{&quot;index&quot;:null}"/></g></g></svg>